<mxfile host="app.diagrams.net" modified="2023-12-11T09:39:10.268Z" agent="Mozilla/5.0 (Windows NT 10.0; Win64; x64) AppleWebKit/537.36 (KHTML, like Gecko) Chrome/119.0.0.0 Safari/537.36" etag="0wEyU514vDYBNu929xNg" version="22.1.7" type="github">
  <diagram name="Page-1" id="2a216829-ef6e-dabb-86c1-c78162f3ba2b">
    <mxGraphModel dx="1590" dy="950" grid="1" gridSize="10" guides="1" tooltips="1" connect="1" arrows="1" fold="1" page="1" pageScale="1" pageWidth="850" pageHeight="1100" background="none" math="0" shadow="0">
      <root>
        <mxCell id="0" />
        <mxCell id="1" parent="0" />
        <mxCell id="BbHy0bJWjw5uTuaQKrxA-7" value="" style="edgeStyle=orthogonalEdgeStyle;rounded=0;orthogonalLoop=1;jettySize=auto;html=1;" edge="1" parent="1" source="BbHy0bJWjw5uTuaQKrxA-4">
          <mxGeometry relative="1" as="geometry">
            <mxPoint x="640" y="380" as="targetPoint" />
          </mxGeometry>
        </mxCell>
        <mxCell id="BbHy0bJWjw5uTuaQKrxA-14" style="edgeStyle=orthogonalEdgeStyle;rounded=0;orthogonalLoop=1;jettySize=auto;html=1;" edge="1" parent="1" source="BbHy0bJWjw5uTuaQKrxA-4">
          <mxGeometry relative="1" as="geometry">
            <mxPoint x="480" y="480" as="targetPoint" />
          </mxGeometry>
        </mxCell>
        <mxCell id="BbHy0bJWjw5uTuaQKrxA-4" value="STEP 1" style="rounded=1;whiteSpace=wrap;html=1;" vertex="1" parent="1">
          <mxGeometry x="420" y="350" width="120" height="60" as="geometry" />
        </mxCell>
        <mxCell id="BbHy0bJWjw5uTuaQKrxA-13" value="" style="edgeStyle=orthogonalEdgeStyle;rounded=0;orthogonalLoop=1;jettySize=auto;html=1;" edge="1" parent="1" source="BbHy0bJWjw5uTuaQKrxA-5" target="BbHy0bJWjw5uTuaQKrxA-11">
          <mxGeometry relative="1" as="geometry" />
        </mxCell>
        <mxCell id="BbHy0bJWjw5uTuaQKrxA-15" style="edgeStyle=orthogonalEdgeStyle;rounded=0;orthogonalLoop=1;jettySize=auto;html=1;" edge="1" parent="1" source="BbHy0bJWjw5uTuaQKrxA-5">
          <mxGeometry relative="1" as="geometry">
            <mxPoint x="700" y="480" as="targetPoint" />
          </mxGeometry>
        </mxCell>
        <mxCell id="BbHy0bJWjw5uTuaQKrxA-5" value="STEP 2" style="rounded=1;whiteSpace=wrap;html=1;" vertex="1" parent="1">
          <mxGeometry x="640" y="350" width="120" height="60" as="geometry" />
        </mxCell>
        <mxCell id="BbHy0bJWjw5uTuaQKrxA-9" value="&lt;h3&gt;User&lt;/h3&gt;1. Displays schema object&lt;br&gt;2. Show updated schema&amp;nbsp;" style="text;html=1;strokeColor=none;fillColor=none;align=center;verticalAlign=middle;whiteSpace=wrap;rounded=0;" vertex="1" parent="1">
          <mxGeometry x="600" y="240" width="410" height="80" as="geometry" />
        </mxCell>
        <mxCell id="BbHy0bJWjw5uTuaQKrxA-10" value="" style="edgeStyle=orthogonalEdgeStyle;rounded=0;orthogonalLoop=1;jettySize=auto;html=1;" edge="1" parent="1" source="BbHy0bJWjw5uTuaQKrxA-11">
          <mxGeometry relative="1" as="geometry">
            <mxPoint x="1070" y="380" as="targetPoint" />
          </mxGeometry>
        </mxCell>
        <mxCell id="BbHy0bJWjw5uTuaQKrxA-16" style="edgeStyle=orthogonalEdgeStyle;rounded=0;orthogonalLoop=1;jettySize=auto;html=1;" edge="1" parent="1" source="BbHy0bJWjw5uTuaQKrxA-11">
          <mxGeometry relative="1" as="geometry">
            <mxPoint x="910" y="480" as="targetPoint" />
          </mxGeometry>
        </mxCell>
        <mxCell id="BbHy0bJWjw5uTuaQKrxA-11" value="STEP 3" style="rounded=1;whiteSpace=wrap;html=1;" vertex="1" parent="1">
          <mxGeometry x="850" y="350" width="120" height="60" as="geometry" />
        </mxCell>
        <mxCell id="BbHy0bJWjw5uTuaQKrxA-17" style="edgeStyle=orthogonalEdgeStyle;rounded=0;orthogonalLoop=1;jettySize=auto;html=1;" edge="1" parent="1" source="BbHy0bJWjw5uTuaQKrxA-12">
          <mxGeometry relative="1" as="geometry">
            <mxPoint x="1130.0000000000002" y="480" as="targetPoint" />
          </mxGeometry>
        </mxCell>
        <mxCell id="BbHy0bJWjw5uTuaQKrxA-12" value="STEP 4" style="rounded=1;whiteSpace=wrap;html=1;" vertex="1" parent="1">
          <mxGeometry x="1070" y="350" width="120" height="60" as="geometry" />
        </mxCell>
        <mxCell id="BbHy0bJWjw5uTuaQKrxA-18" value="" style="shape=note;whiteSpace=wrap;html=1;backgroundOutline=1;darkOpacity=0.05;size=17;" vertex="1" parent="1">
          <mxGeometry x="450" y="480" width="60" height="50" as="geometry" />
        </mxCell>
        <mxCell id="BbHy0bJWjw5uTuaQKrxA-19" value="" style="shape=note;whiteSpace=wrap;html=1;backgroundOutline=1;darkOpacity=0.05;size=17;" vertex="1" parent="1">
          <mxGeometry x="1110" y="480" width="60" height="50" as="geometry" />
        </mxCell>
        <mxCell id="BbHy0bJWjw5uTuaQKrxA-20" value="" style="shape=note;whiteSpace=wrap;html=1;backgroundOutline=1;darkOpacity=0.05;size=17;" vertex="1" parent="1">
          <mxGeometry x="880" y="480" width="60" height="50" as="geometry" />
        </mxCell>
        <mxCell id="BbHy0bJWjw5uTuaQKrxA-21" value="" style="shape=note;whiteSpace=wrap;html=1;backgroundOutline=1;darkOpacity=0.05;size=17;" vertex="1" parent="1">
          <mxGeometry x="670" y="480" width="60" height="50" as="geometry" />
        </mxCell>
        <mxCell id="BbHy0bJWjw5uTuaQKrxA-23" style="edgeStyle=orthogonalEdgeStyle;rounded=0;orthogonalLoop=1;jettySize=auto;html=1;entryX=-0.005;entryY=0.463;entryDx=0;entryDy=0;entryPerimeter=0;exitX=0.5;exitY=1;exitDx=0;exitDy=0;" edge="1" parent="1">
          <mxGeometry relative="1" as="geometry">
            <mxPoint x="370" y="400.57000000000005" as="targetPoint" />
            <mxPoint x="219.35" y="280.0000000000001" as="sourcePoint" />
            <Array as="points">
              <mxPoint x="234.35" y="280" />
              <mxPoint x="234.35" y="401" />
            </Array>
          </mxGeometry>
        </mxCell>
        <mxCell id="BbHy0bJWjw5uTuaQKrxA-22" value="&lt;h2&gt;&lt;b&gt;Client&lt;/b&gt;&lt;/h2&gt;1. Schema&lt;br&gt;2. Updated schema" style="whiteSpace=wrap;html=1;aspect=fixed;" vertex="1" parent="1">
          <mxGeometry x="150" y="150" width="130" height="130" as="geometry" />
        </mxCell>
        <mxCell id="BbHy0bJWjw5uTuaQKrxA-27" style="edgeStyle=orthogonalEdgeStyle;rounded=0;orthogonalLoop=1;jettySize=auto;html=1;exitX=1.001;exitY=0.467;exitDx=0;exitDy=0;exitPerimeter=0;" edge="1" parent="1" source="BbHy0bJWjw5uTuaQKrxA-25">
          <mxGeometry relative="1" as="geometry">
            <mxPoint x="1360" y="400" as="targetPoint" />
            <Array as="points">
              <mxPoint x="1241" y="400" />
            </Array>
          </mxGeometry>
        </mxCell>
        <mxCell id="BbHy0bJWjw5uTuaQKrxA-30" style="edgeStyle=orthogonalEdgeStyle;rounded=0;orthogonalLoop=1;jettySize=auto;html=1;entryX=0.437;entryY=-0.01;entryDx=0;entryDy=0;entryPerimeter=0;" edge="1" parent="1" source="BbHy0bJWjw5uTuaQKrxA-25" target="BbHy0bJWjw5uTuaQKrxA-28">
          <mxGeometry relative="1" as="geometry">
            <mxPoint x="805" y="729.9999999999998" as="targetPoint" />
          </mxGeometry>
        </mxCell>
        <mxCell id="BbHy0bJWjw5uTuaQKrxA-33" style="edgeStyle=orthogonalEdgeStyle;rounded=0;orthogonalLoop=1;jettySize=auto;html=1;exitX=0;exitY=0.514;exitDx=0;exitDy=0;exitPerimeter=0;" edge="1" parent="1" source="BbHy0bJWjw5uTuaQKrxA-25">
          <mxGeometry relative="1" as="geometry">
            <mxPoint x="210.87" y="279.9999999999999" as="targetPoint" />
            <mxPoint x="370" y="423.97" as="sourcePoint" />
            <Array as="points">
              <mxPoint x="211" y="421" />
            </Array>
          </mxGeometry>
        </mxCell>
        <mxCell id="BbHy0bJWjw5uTuaQKrxA-25" value="" style="rounded=0;whiteSpace=wrap;html=1;fillColor=none;noLabel=0;allowArrows=1;autosize=0;" vertex="1" parent="1">
          <mxGeometry x="370" y="230" width="870" height="380" as="geometry" />
        </mxCell>
        <mxCell id="BbHy0bJWjw5uTuaQKrxA-28" value="&lt;div style=&quot;&quot;&gt;DataBase&lt;/div&gt;&lt;div style=&quot;&quot;&gt;&lt;br&gt;&lt;/div&gt;&lt;div style=&quot;&quot;&gt;1. Encrypted data with metadata&lt;br&gt;2.Temp id which always changes when client logins or modifies data&lt;/div&gt;&lt;div style=&quot;&quot;&gt;&lt;br&gt;&lt;/div&gt;&lt;div style=&quot;&quot;&gt;&lt;br&gt;&lt;/div&gt;" style="rounded=0;whiteSpace=wrap;html=1;align=center;" vertex="1" parent="1">
          <mxGeometry x="680" y="740" width="285" height="300" as="geometry" />
        </mxCell>
        <mxCell id="BbHy0bJWjw5uTuaQKrxA-29" style="edgeStyle=orthogonalEdgeStyle;rounded=0;orthogonalLoop=1;jettySize=auto;html=1;entryX=0.52;entryY=1.012;entryDx=0;entryDy=0;entryPerimeter=0;" edge="1" parent="1">
          <mxGeometry relative="1" as="geometry">
            <mxPoint x="822.3688888888888" y="735.32" as="sourcePoint" />
            <mxPoint x="822.2800000000001" y="610" as="targetPoint" />
          </mxGeometry>
        </mxCell>
        <mxCell id="BbHy0bJWjw5uTuaQKrxA-31" value="Submit" style="rounded=0;whiteSpace=wrap;html=1;" vertex="1" parent="1">
          <mxGeometry x="1360" y="370" width="120" height="60" as="geometry" />
        </mxCell>
        <mxCell id="BbHy0bJWjw5uTuaQKrxA-35" value="Encrypted data" style="text;html=1;strokeColor=none;fillColor=none;align=center;verticalAlign=middle;whiteSpace=wrap;rounded=0;" vertex="1" parent="1">
          <mxGeometry x="170" y="430" width="160" height="30" as="geometry" />
        </mxCell>
      </root>
    </mxGraphModel>
  </diagram>
</mxfile>
